<svg xmlns="http://www.w3.org/2000/svg" viewBox="0 0 20.01 19.08"><defs><style>.cls-1{fill:#888;opacity:0.8;isolation:isolate;}</style></defs><g id="Layer_2" data-name="Layer 2"><g id="Icons"><path id="broadcast-enft" class="cls-1" d="M2.93,0,4.34,1.42a8,8,0,0,0,0,11.31L2.93,14.15A10,10,0,0,1,2.92,0ZM17.07,0a10,10,0,0,1,0,14.14h0l-1.41-1.42a8,8,0,0,0,0-11.31L17.07,0ZM5.76,2.83,7.17,4.25a4,4,0,0,0,0,5.65L5.76,11.32a6,6,0,0,1,0-8.49Zm8.48,0a6,6,0,0,1,0,8.49h0L12.83,9.9a4,4,0,0,0,0-5.65ZM10,9.08a2,2,0,1,1,2-2A2,2,0,0,1,10,9.08Zm0,2a1.19,1.19,0,0,1,1.18,1l1.32,7h-5l1.32-7A1.2,1.2,0,0,1,10,11.08Z"/></g></g></svg>