<svg xmlns="http://www.w3.org/2000/svg" viewBox="0 0 22.52 19"><defs><style>.cls-1{fill:#888;opacity:0.8;isolation:isolate;}</style></defs><g id="Layer_2" data-name="Layer 2"><g id="Icons"><path id="buyer-resale" class="cls-1" d="M4,7A1,1,0,0,1,5,8,7,7,0,0,1,9.33,9.5H11.5A4.5,4.5,0,0,1,14.86,11H18a5,5,0,0,1,4.52,2.85A13.17,13.17,0,0,1,12,19a14.32,14.32,0,0,1-7.06-1.66A1,1,0,0,1,4,18H1a1,1,0,0,1-1-1V8A1,1,0,0,1,1,7Zm1,3v5H5a11.91,11.91,0,0,0,7,2,11.28,11.28,0,0,0,7.84-3.13l.13-.13-.12-.1A3,3,0,0,0,18.21,13H15.89A4.79,4.79,0,0,1,16,14v1H7V13h6.79v-.08a2.52,2.52,0,0,0-2.12-1.43H8.57A5,5,0,0,0,5,10ZM3,9H2v7H3ZM17,3a3,3,0,1,1-3,3A3,3,0,0,1,17,3Zm0,2a1,1,0,1,0,1,1A1,1,0,0,0,17,5ZM10,0A3,3,0,1,1,7,3,3,3,0,0,1,10,0Zm0,2a1,1,0,1,0,1,1A1,1,0,0,0,10,2Z"/></g></g></svg>