<svg xmlns="http://www.w3.org/2000/svg" viewBox="0 0 19 20"><defs><style>.cls-1{fill:#888;opacity:0.8;isolation:isolate;}</style></defs><g id="Layer_2" data-name="Layer 2"><g id="Icons"><path id="buyer-purchase" class="cls-1" d="M8,0l7.3,2.28a1,1,0,0,1,.7,1V5h2a1,1,0,0,1,1,1v8a1,1,0,0,1-1,1H14.78a6.11,6.11,0,0,1-1.4,1.33L8,20,2.62,16.33a6,6,0,0,1-2.62-5V3.24a1,1,0,0,1,.7-1ZM8,2.09,2,4v7.4a4,4,0,0,0,1.56,3.17l.19.14L8,17.61,11.78,15H7a1,1,0,0,1-1-1V6A1,1,0,0,1,7,5h7V4ZM8,10v3h9V10ZM8,8h9V7H8Z"/></g></g></svg>