<svg xmlns="http://www.w3.org/2000/svg" viewBox="0 0 20 20"><defs><style>.cls-1{fill:#888;opacity:0.8;isolation:isolate;}</style></defs><g id="Layer_2" data-name="Layer 2"><g id="Icons"><path id="offchain-defi" class="cls-1" d="M15,15h5v2H17v3H15ZM5,5H0V3H3V0H5Zm11.36,8.54L15,12.12l1.41-1.41a5,5,0,0,0-7-7.11h0L7.88,5.05,6.46,3.64,7.88,2.22a7,7,0,1,1,9.9,9.9h0Zm-2.82,2.82-1.42,1.42a7,7,0,0,1-9.9-9.9L3.64,6.46,5.05,7.88,3.64,9.29a5,5,0,0,0,7,7.11h0L12.12,15l1.42,1.42Zm-.71-10.6,1.41,1.41L7.17,14.24,5.76,12.83Z"/></g></g></svg>