<svg xmlns="http://www.w3.org/2000/svg" viewBox="0 0 18.62 20.26"><defs><style>.cls-1{fill:#888;opacity:0.8;isolation:isolate;}</style></defs><g id="Layer_2" data-name="Layer 2"><g id="Icons"><path id="proof-authenticity" class="cls-1" d="M14.62,11v1a17,17,0,0,1-1.92,7.84l-.23.42-1.74-1a14.89,14.89,0,0,0,1.88-6.84V11Zm-6-3h2v4.38a13,13,0,0,1-2.69,7.55l-.23.29L6.15,19a11,11,0,0,0,2.47-6.59Zm1-4a5,5,0,0,1,5,5h-2a3,3,0,1,0-6,0v3a8.93,8.93,0,0,1-2.28,6l-.21.23L2.68,16.85a7,7,0,0,0,1.93-4.52V9a5,5,0,0,1,5-5Zm0-4a9,9,0,0,1,9,9v3a21.11,21.11,0,0,1-.6,5l-.14.54L16,17a19.52,19.52,0,0,0,.66-4.43V9A7,7,0,0,0,5.41,3.39L4,2A8.86,8.86,0,0,1,9.62,0Zm-7,3.38L4.05,4.81a7,7,0,0,0-1.39,4v2.24a7,7,0,0,1-.76,3.17l-.16.29L0,13.51a4.77,4.77,0,0,0,.65-2.18V9A9,9,0,0,1,2.58,3.38Z"/></g></g></svg>