<svg xmlns="http://www.w3.org/2000/svg" version="1.0" width="128px" height="127px" viewBox="0 0 128 127" preserveAspectRatio="xMidYMid meet"><script xmlns=""/>
 <g>
  <path d="M50.2 124.5 c-17.2 -3.8 -34.4 -17.4 -42 -33.5 -5 -10.6 -6.4 -16.7 -6.4 -27.5 0 -10.8 1.4 -16.9 6.4 -27.5 3.3 -6.9 5.6 -10 12.2 -16.5 15.8 -15.6 35.6 -21.5 57 -17 17.6 3.7 34.6 17.2 42.4 33.5 5 10.6 6.4 16.7 6.4 27.5 0 10.8 -1.4 16.9 -6.4 27.5 -7.8 16.3 -24.8 29.8 -42.4 33.5 -8.5 1.8 -18.9 1.8 -27.2 0z m31.8 -7.2 c17.5 -5.7 30.4 -18.8 36.6 -37.3 2.6 -7.7 2.6 -25.3 0 -33 -4.6 -13.5 -11.7 -23.2 -22.3 -30.3 -19.6 -13.3 -45 -13.3 -64.6 0 -10.6 7.1 -17.7 16.8 -22.3 30.3 -2.6 7.7 -2.6 25.3 0 33 10.7 31.4 41.8 47.4 72.6 37.3z"/>
  <path d="M65.1 102.4 c-1.2 -1.5 -2.1 -3.5 -2.1 -4.6 0 -2.6 5.3 -7.8 8 -7.8 6.4 0 11 -6.2 11 -15 0 -8.8 -4.6 -15 -11 -15 -2.7 0 -8 -5.2 -8 -7.8 0 -3.3 3.8 -7.2 7.1 -7.2 4.8 0 6.7 1.7 8.4 7.2 0.8 2.9 2.7 6.5 4.2 8 2.3 2.4 3.5 2.8 8.2 2.8 10.2 0 16.4 6.6 14.1 14.9 -1.6 6 -4.8 8.3 -12.9 9 -8.6 0.8 -11.4 3 -13.6 10.7 -1.7 5.7 -3.5 7.4 -8.4 7.4 -2 0 -3.6 -0.8 -5 -2.6z"/>
  <path d="M52.8 80.9 c-1 -0.5 -2.4 -3.3 -3.3 -6.1 -0.8 -2.9 -2.7 -6.5 -4.2 -8 -2.3 -2.4 -3.5 -2.8 -8.2 -2.8 -10.2 0 -16.4 -6.6 -14.1 -14.9 1.6 -6 4.8 -8.3 12.9 -9 8.6 -0.8 11.4 -3 13.6 -10.7 1.7 -5.7 3.5 -7.4 8.4 -7.4 3.3 0 7.1 3.9 7.1 7.2 0 2.6 -5.3 7.8 -8 7.8 -6.4 0 -11 6.2 -11 15 0 8.8 4.6 15 11 15 2.7 0 8 5.2 8 7.8 0 1.1 -0.9 3.1 -2.1 4.6 -2.2 2.8 -6.8 3.5 -10.1 1.5z"/>
 </g>
</svg>